<?xml version="1.0" encoding="UTF-8"?>
<svg width="97px" height="80px" viewBox="0 0 97 80" version="1.1" xmlns="http://www.w3.org/2000/svg" xmlns:xlink="http://www.w3.org/1999/xlink">
    <g id="Page-1" stroke="none" stroke-width="1" fill="none" fill-rule="evenodd">
        <g id="logo" fill="#ffffff">
            <g id="Group" transform="translate(0.000000, 10.000000)">
                <path d="M13.8,9.1 C12.6,9.4 11,10.5 10.3,11.5 L1.7,23.4 C1,24.4 0.4,26.3 0.4,27.5 L0.4,56.2 C0.4,57.4 1.4,58.2 2.6,57.9 L9.5,56 C10.7,55.7 11.7,54.4 11.7,53.1 L11.7,24.3 C11.7,23.1 12.7,21.8 13.9,21.4 L20.5,19.6 C21.7,19.3 22.7,20 22.7,21.3 L22.7,50 C22.7,51.2 23.7,52 24.9,51.7 L31.8,49.8 C33,49.5 34,48.2 34,46.9 L34,18.1 C34,16.9 35,15.6 36.2,15.2 L42.8,13.4 C44,13.1 45,13.8 45,15.1 L45,43.8 C45,45 46,45.8 47.2,45.5 L54.1,43.6 C55.3,43.3 56.3,42 56.3,40.7 L56.3,11.9 C56.3,10.7 55.5,9 54.5,8.2 L46.7,1.9 C45.7,1.1 44,0.7 42.8,1.1 L13.8,9.1 Z" id="Path"></path>
            </g>
            <g id="Group" transform="translate(63.000000, 0.000000)" fill-rule="nonzero">
                <path d="M2.5,5.1 C1.3,5.4 0.3,6.7 0.3,8 L0.3,78.5 C0.3,79.7 0.9,79.9 1.6,78.9 L10.2,67 C10.9,66 11.5,64.1 11.5,62.9 L11.5,50.5 C11.5,49.3 12.5,48 13.7,47.6 L20.3,45.8 C21.5,45.5 23.1,44.4 23.8,43.4 L32.4,31.5 C33.1,30.5 33.7,28.6 33.7,27.4 L33.7,11 C33.7,9.8 32.9,8.1 31.9,7.3 L24.1,1 C23.1,0.2 21.4,-0.2 20.2,0.2 L2.5,5.1 Z M13.8,35.2 C12.6,35.5 11.6,34.8 11.6,33.5 L11.6,17.2 C11.6,16 12.6,14.7 13.8,14.3 L20.4,12.5 C21.6,12.2 22.6,12.9 22.6,14.2 L22.6,30.6 C22.6,31.8 21.6,33.1 20.4,33.5 L13.8,35.2 Z" id="Shape"></path>
            </g>
        </g>
    </g>
</svg>